<svg xmlns="http://www.w3.org/2000/svg" xmlns:xlink="http://www.w3.org/1999/xlink" width="640" height="480" xmlns:v="https://vecta.io/nano"><path fill="#bcc1e2" d="M187.005 242.605s124.552 112.227 270.47-.31c0 0 8.688 75.38-58.813 102.5 0 0-16.887 41.62-79.397 59.8 0 0-43.733-11.462-74.396-58.642 0 .001-63.343-19.354-57.864-103.34z"/><g fill="#efefef"><use xlink:href="#B"/><use xlink:href="#C"/><use xlink:href="#B"/><use xlink:href="#C"/><use xlink:href="#B"/><path d="M262.633 237.82a34.17 34.17 0 0 1 4.664-6.896 56.34 56.34 0 0 1-4.664 6.896z"/></g><circle fill="#fff" cx="488.866" cy="219.172" r="22.599"/><path fill="#bcc1e2" d="M511.46 219.17c0 12.48-10.1 22.6-22.6 22.6s-22.6-10.12-22.6-22.6a18.73 18.73 0 0 1 .101-2c1 11.54 10.69 20.6 22.5 20.6s21.5-9.06 22.5-20.6c.07.66.1 1.33.1 2z"/><path fill="#fff" d="M187.486 208.54s122.96-63.015 265.98-1.747c0 0 .12.355-19.822-28.07 0 0 15.31 3.2 42.545 19.12 0 0-23.168-128.417-154.717-115.742 0 0-81.844 43.56-133.986 126.44z"/><path fill="#ff002b" d="M207.616 179.587s122.3-56.16 270.053 19.782c0 0-12.174-141.036-153.536-131.038 0 0-54.55 33.67-116.517 111.256z"/><path fill="#fff" d="M187.005 242.593s124.552 107.345 270.47-.296c0 0 8.688 72.102-58.813 98.032 0 0-16.887 39.81-79.397 57.2 0 0-43.733-10.963-74.396-56.09 0 0-63.343-18.513-57.864-98.845z"/><path fill="#bcc1e2" d="M460.416 234.21l-1.657 5.385c-22.795 56.404-46.477 73.07-77.445 66.738-15.084-3.085-23.074-6.1-39.9-17.064-8.864-5.775-13.874-9.536-20.918-17.74-7.43 8.3-12.394 11.2-21.48 17.346-10.304 6.958-21.508 13.763-36.382 17.47-29.7 7.404-55.643-17.494-77.753-64.416-.525-1.115-.868-2.334-1.27-3.52 9.543 11.844 23.31 19.268 38.615 19.268 15.558 0 29.526-7.676 39.07-19.855 1.71-2.156 3.26-4.46 4.664-6.896 5.762-6.662 13.915-10.8 22.937-10.8 3.235 0 6.362.527 9.304 1.527 11.67 3.932 20.478 15.056 22.107 28.674-.187 1.496-.28 3.037-.28 4.594 0 1.57.095 3.097.28 4.607a37.36 37.36 0 0 0 .281-4.607 37.32 37.32 0 0 0-.281-4.594c1.7-14.19 11.2-25.695 23.618-29.13a28.71 28.71 0 0 1 7.793-1.07c9.665 0 18.325 4.756 24.127 12.254.828 1.35 1.71 2.67 2.634 3.934.013.014.026.043.054.06 9.556 13.016 24.006 21.307 40.18 21.307 17.04-.004 32.184-9.22 41.7-23.47z"/><path fill="#fff" d="M320.31 250.324c1.7-14.19 11.2-25.695 23.618-29.13a28.71 28.71 0 0 1 7.793-1.07c9.665 0 18.325 4.756 24.127 12.254.828 1.35 1.71 2.67 2.634 3.934.013.014.026.043.054.06 9.556 13.016 24.006 21.307 40.18 21.307 17.042 0 32.187-9.216 41.703-23.465-.508 1.82-1.056 3.625-1.657 5.385-11.95 35.44-42.426 60.638-78.14 60.638-12.657 0-24.66-3.17-35.42-8.833-9.3-4.903-17.658-11.667-24.7-19.87-7.432 8.3-16.24 15.012-26.012 19.708-10.08 4.842-21.172 7.528-32.828 7.528-34.432 0-63.985-23.407-76.777-56.837-.44-1.158-.868-2.334-1.27-3.52 9.543 11.844 23.31 19.268 38.615 19.268 15.558 0 29.526-7.676 39.07-19.855 1.71-2.156 3.26-4.46 4.664-6.896 5.762-6.662 13.915-10.8 22.937-10.8a28.83 28.83 0 0 1 9.303 1.527c11.67 3.93 20.477 15.053 22.108 28.67"/><path fill="#bcc1e2" d="M434.996 180.65s-41.327-20.055-97.79-20.478c0 0 87.006 8.415 116.26 46.62l-18.47-26.143z"/><defs ><path id="B" d="M321.926 254.918c0 1.57-.094 3.097-.28 4.607a37.36 37.36 0 0 1-.28-4.607 37.32 37.32 0 0 1 .28-4.594 37.32 37.32 0 0 1 .28 4.594z"/><path id="C" d="M267.297 230.924c-1.403 2.436-2.954 4.74-4.664 6.896 1.283-2.508 2.86-4.828 4.664-6.896z"/></defs></svg>