<svg version="1" xmlns="http://www.w3.org/2000/svg" width="1706.667" height="1706.667" viewBox="0 0 1280.000000 1280.000000"><path d="M662.6 295.7c-.1.2-3.7.5-7.9.7-5.9.4-8.1.9-9.9 2.5-1.2 1.2-2.6 2.1-3.1 2.1-.8 0-2.8 1.4-8.4 6-.7.6-1.5 1-1.8 1-.3 0-1.1.5-1.8 1-.7.6-4.6 3.6-8.7 6.7s-7.6 6-7.8 6.5c-.2.4-.8.8-1.3.8-1.2 0-12.4 8.8-25.4 19.9-1.1.9-4.2 3.5-6.9 5.6-2.8 2.2-6.2 5.1-7.6 6.5-1.5 1.4-5.6 5-9 8-3.5 3-8.8 7.7-11.8 10.5-3.1 2.7-8 7.2-11 10-7.8 7.1-47.2 46.4-56.7 56.7-13.6 14.6-21.4 23.2-30 33.3-3.3 3.8-6.3 7.2-6.6 7.5-.3.3-3 3.4-6 7-8.4 10.1-9.2 11.1-12.1 14.1-1.4 1.5-2.4 3-2.1 3.3.3.3-.2.8-1.1 1.2-.9.3-1.6 1-1.6 1.4 0 .5-1.7 2.7-3.7 5-2.1 2.3-3.8 4.5-3.8 4.9 0 1-4.5 6.8-6.7 8.9-1 .9-1.8 2.2-1.8 2.8 0 .7-.4 1.4-.8 1.6-.5.1-2.8 3-5.2 6.3-2.4 3.3-4.7 6.1-5.2 6.3-.4.2-.8.8-.8 1.4 0 .6-1.3 2.7-3 4.8-1.7 2.1-3 4.3-3 4.9 0 .6-.4 1.1-.8 1.1-.5 0-1.5 1.2-2.3 2.7-.8 1.6-1.9 3.4-2.6 4-1.3 1.4-8.3 12.8-8.3 13.5 0 .3 2.7-.8 6-2.3 3.3-1.6 6.4-2.9 7-2.9.5 0 1-.4 1-1 0-.5.3-.9.8-.8.9.2 4.6-.9 9.7-3.2 7.8-3.3 20.5-8 22.3-8.2.6-.1 1.2-.6 1.2-1.1 0-.6.3-.8.6-.5.3.4 3.8-.5 7.7-1.9 4-1.3 7.9-2.6 8.7-2.8.8-.2 6.2-1.8 11.9-3.5s11.1-3.3 12-3.6c.9-.2 3.4-.8 5.6-1.4 2.2-.6 4.9-1.3 6-1.5 1.1-.3 6.7-1.6 12.5-3 5.7-1.4 11.4-2.6 12.7-2.7 1.3-.2 2.3-.5 2.3-.8 0-.3.8-.6 1.8-.7 1-.1 4.5-.6 7.8-1.2 3.2-.6 7.1-1.3 8.7-1.6 1.5-.3 3.8-.7 5.2-1 1.4-.3 3.5-.7 4.8-.9 1.2-.3 4.2-.7 6.7-1 2.5-.3 5.4-.7 6.5-1 1.1-.2 4.3-.7 7-1 2.8-.4 6.1-.9 7.5-1.1 2.5-.4 8.1-1 19-2 3-.3 7.3-.7 9.5-1 10.6-1.3 29.7-1.9 57-1.9 34.7 0 55.8 1.1 77.5 4 1.9.2 5.8.6 8.5.9 2.8.2 5 .5 5 .6 0 .1 1.4.3 3 .4 1.7.2 3 .4 3 .5 0 .1 1.4.3 3 .5 4 .5 8.3 1.2 12.5 2 1.9.4 4.6.8 6 1 1.4.1 3.4.5 4.5.8 1.1.3 3.7.8 5.9 1.2 2.1.3 4.2.8 4.7 1.1.5.3 2.3.7 4.1.9 1.8.2 6.9 1.2 11.3 2.4 4.4 1.1 9.1 2.2 10.5 2.5 1.4.3 4.5 1 7 1.7 2.5.6 5.2 1.2 6 1.4.8.2 1.6.4 1.8.5.1.2.5.3 1 .4 5.6 1.5 11.7 3.3 21.2 6.4 6.3 2 11.7 3.7 12 3.8.3.1 2 .5 3.8.9 1.8.4 3.5 1.2 3.8 1.6.3.5 1.1.9 1.9.9.8 0 2.6.5 4.2 1.1 1.5.6 2.8.9 2.8.8 0-.1 1.1.4 2.5 1.1 1.4.8 3.1 1.5 3.8 1.6.7.1 7.6 2.8 15.4 5.9 7.7 3.1 14.2 5.4 14.4 5.2.2-.2-.5-1.2-1.6-2.2-1.1-1-2-2.4-2-3.2 0-.7-.3-1.3-.7-1.3-.5 0-1.9-1.7-3.3-3.8-1.4-2-2.8-4.2-3.3-4.7-4.5-6-16.7-23.8-16.7-24.5 0-.5-.9-1.5-2-2.2-1.1-.7-2-1.8-2-2.4 0-.5-.9-2-2.1-3.3-1.2-1.2-1.9-2.4-1.7-2.7.4-.3 9.8 2.8 15.8 5.3.8.3 1.7.7 2 .8 1.4.5 6.7 2.7 8.5 3.5 1.1.5 5.4 2.3 9.5 4 10.1 4.3 13 5.6 31.4 14.4 8.7 4.2 16 7.6 16.2 7.6.2 0 .3-1.6.2-3.5-.1-1.9-.4-3.5-.7-3.5-.3 0-.6-1.6-.5-3.5.1-1.9-1-8.3-2.3-14.3-1.3-5.9-2.5-11.6-2.8-12.7-.3-1.6-3.1-11.6-4.9-18-.2-.9-2.7-9-3.1-10.5-.1-.3-.7-1.8-1.3-3.3-.7-1.6-1.2-3.2-1.2-3.8 0-2.3-12-30.7-18.1-42.6-5.8-11.4-16.3-29.8-17.9-31.3-1-.9-4-6-3.9-6.6 0-.3-.6-1.1-1.3-1.7-.8-.7-3.4-3.9-5.9-7.2-2.4-3.3-4.8-6.5-5.4-7.1-.5-.6-3.5-4-6.5-7.5-6.7-7.6-18.6-19.5-24.2-24.1-2.3-1.8-4.6-3.8-5.2-4.3-2.8-2.7-13.9-10.7-21.1-15.4-4.4-2.8-8.4-5.4-9-5.9-1.2-.8-24.6-12.7-25.4-12.8-.3 0-1.8-.6-3.3-1.2-6.3-2.7-8.4-3.5-9.3-3.8-.5-.2-4.4-1.5-8.5-2.9-9-3.1-8.3-2.9-19.5-5.6-4.9-1.2-9.7-2.4-10.5-2.7-.8-.2-2.6-.6-4-.8-1.4-.2-3.5-.6-4.8-.9-1.2-.3-4.4-.8-7-1.1-2.6-.3-6-.7-7.7-1-3.4-.4-11.4-1.2-19.5-1.9-5.8-.6-37-1.2-37.4-.8zM968 554.2c-1.9.5-4.1.9-4.7 1-.7.1-1.3.5-1.3 1 0 .4-.3.7-.7.6-1.2-.3-5.5 1.3-7 2.6-.7.6-2.6 2.2-4.4 3.6-4.9 3.9-6.3 5.3-8.5 8.5-2 2.8-5.7 9.4-5.9 10.5-.1.3-.7 2.3-1.3 4.6-3.1 10.7-2 21.2 3.3 32 7.7 15.8 24.7 25.8 42.2 24.8 6.1-.3 6.4-.4 12.8-2.2 7.1-2 15.3-8.1 22.2-16.5 6.4-7.8 10.1-26.5 7.1-36.1-.5-1.7-1-3.6-1.1-4.1-.2-.6-.6-1.6-1-2.3-.5-.6-.6-1.2-.2-1.2.3 0-1.1-2.6-3-5.8-4-6.3-11.3-13.5-15.7-15.4-1.5-.7-2.8-1.6-2.8-2 0-.5-.9-.8-1.9-.8-1.1 0-2.2-.4-2.5-.9-1.4-2.1-19.2-3.5-25.6-1.9zM575.6 599.7c-.3.4-2.5.8-4.9 1-5.1.4-6.6.7-9.2 1.7-1.1.4-3.3 1.3-5 1.8-10 3.6-21.6 12.8-27.4 21.8-1.9 3-3.8 5.9-4.2 6.5-8 10.3-23.8 25.4-26.6 25.5-.7 0-1.3.3-1.3.8 0 .4-2.1 1.8-4.7 3.2-2.7 1.3-5.1 2.9-5.5 3.5-.4.5-.8.6-.8.1s-.6-.4-1.3.2c-.7.6-4.5 2.3-8.5 3.7-18.7 6.7-40.3 7.3-59.2 1.4-7.6-2.4-23-9.7-23-11 0-.5-.5-.9-1.1-.9-.6 0-2.3-1-3.8-2.3-1.5-1.2-4.3-3.3-6.1-4.7-1.9-1.4-6.1-5.1-9.3-8.3-3.2-3.1-6-5.7-6.3-5.7-.2 0 .5 1.8 1.6 4s1.8 4 1.4 4c-.3 0 0 1 .9 2.3 1.1 1.7 1.6 7 2.1 21.7.8 22.1 1.1 25.4 3.1 37.3.3 1.5.7 3.8.9 5.2.3 1.4.7 3.3 1 4.3.8 2.7 1.8 7.4 2.1 10.6.2 1.6.7 3.1 1.2 3.5.4.3 1 1.7 1.1 3 1 6.7 13.2 36.1 15.3 36.9.5.2.9 1 .9 1.7 0 1.6 10.9 18.3 16.7 25.5 8.8 10.9 27.6 29 30.2 29 .6 0 1.1.4 1.1.9 0 .7 6.2 5.2 13.1 9.6 6.1 3.8 24.3 12.9 27.9 13.8.8.2 2.9 2.4 4.5 4.8 3.7 5.4 10.7 15 12 16.5.6.6 1.9 2.3 3 3.8s2.9 3.8 4 5c1.1 1.2 4.7 5.3 8 9 6.3 7.2 13.3 14.1 22.5 22.2 3 2.7 6.5 5.9 7.8 7.1 1.2 1.3 2.6 2.3 3 2.3.4 0 2.4 1.6 4.5 3.5s4.1 3.5 4.5 3.5c.4 0 2 1.1 3.5 2.5s2.7 2.2 2.7 1.8c0-.4.4-.4.8.2 1.1 1.5 12.9 9.5 14 9.5.6 0 1.2.4 1.4.8.3.9 2.1 2 9.8 5.9 1.9 1 3.7 2 4 2.3.8.8 19.7 9.8 22 10.5.3.1 1.9.8 3.5 1.5 1.7.7 3.2 1.4 3.5 1.5.3 0 2.9.9 5.9 1.9 5.2 1.8 5.6 1.8 11.5 0 3.3-.9 6.7-2.2 7.5-2.8.8-.6 1.6-.9 1.8-.7.3.3 5.1-1.2 11.3-3.6.8-.4 1.7-.7 2-.8 1.2-.4 6.7-2.6 8.5-3.4 1.1-.5 4.3-1.9 7-3.1 2.8-1.2 5.8-2.6 6.8-3.1.9-.5 2.7-1.4 4-2.1 1.2-.6 2.9-1.5 3.7-1.9.8-.5 4.2-2.2 7.5-4 3.3-1.7 7.2-4 8.7-5 1.4-1 3.1-1.9 3.7-1.9.6 0 1.1-.4 1.1-.8 0-.5 1.2-1.5 2.8-2.3 2.9-1.5 19.9-13.8 24.6-17.9 8.7-7.6 15.8-14.4 21.4-20.6 3-3.2 6.2-6.9 7.3-8.1 1.1-1.2 4.2-5.3 6.9-9s5.3-7.3 5.7-7.9c1.2-1.5 3-4.5 5.2-8.6 3.6-6.6 7.1-11.8 8-11.8.5 0 2.5-.7 4.5-1.5s3.7-1.4 3.8-1.3c.2.2 1.8-.7 3.6-2 1.7-1.3 3.2-2 3.2-1.5 0 .4.4.3.8-.2.4-.6 3.2-2.3 6.2-3.9 15.6-8.4 33.7-23.3 48-39.6 4.2-4.8 15-20.6 15-21.9 0-.6.4-1.1.8-1.1.8 0 6.4-10.5 6.2-11.6-.1-.4.4-1 1.2-1.5.7-.5 1.3-1.2 1.4-1.6 0-.4.5-1.9 1.1-3.3 4.8-11.5 6.4-15.5 8.6-22.5 2.4-7.3 4.5-14.7 5.2-18.5.2-.8.6-2.6.9-4 .8-3.3 1.5-7.7 2.2-12.5.3-2.2.7-4.6.9-5.3.5-1.4 1.8-16.9 1.9-22 0-1.7.4-3.2.9-3.2.4 0 .5-.5.2-1.1-1-1.5-1.3-23.2-.4-24.4 1.1-1.6 4-11.8 3.4-12.3-.3-.3-.6-.3-.8-.1-9.3 12.2-17.6 20.5-27.8 27.3-3 2-6 4.1-6.6 4.6-.7.6-1.5 1.1-1.8 1.1-.2 0-3.1 1.2-6.2 2.6-13.8 6.1-24.9 8.3-40.3 7.9-18-.5-24.7-2-39.9-9.3-16.4-8-33.7-23.2-41.7-36.8-3.4-5.9-12.8-15-19.8-19.3-3.3-2.1-6.4-3.6-6.8-3.5-.4.2-.8-.2-.8-.9 0-.6-.3-.9-.6-.6-.3.4-2.2 0-4.1-.9-2-.8-5.2-1.7-7.2-1.9-5.7-.7-6.5-.9-7.8-1.7-.7-.5-1.3-.5-1.3 0 0 .4-2.2.8-4.8.7-7.2-.1-20 3.6-27.5 8-8.1 4.8-18.1 14.5-22.6 21.9-3.1 5.4-8 16.3-8.6 19.6-.2.9-.4 1.7-.5 1.8-.2.2-.3 1.2-.4 2.2-.1 2-1.5 4.1-1.7 2.5-.1-1.6-.8-4.7-1.5-7.3-.4-1.4-.7-2.9-.6-3.4.1-.4-.3-.7-.9-.7-.5 0-.8-.4-.5-.8 1.2-1.9-7.6-16.9-14.1-24.3-3.1-3.4-11.4-9.9-15.8-12.2-9.2-4.9-15.2-6.7-24.1-7.1-2.2-.2-4.5-.5-5.1-.9-.5-.4-1.3-.4-1.7 0zm73.5 112.1c9.3 9.5 12.7 12.4 24 20.4 4.8 3.4 8.7 6.3 8.6 6.5-1.2 1.1-45.1 2.1-48.9 1.1-1.5-.3-3-.2-3.4.3-.3.5-1 .7-1.5.4-.5-.3-5-.8-10.1-1.1-11.8-.7-13.1-.8-14.5-1.7-.6-.4-1.3-.3-1.5.3-.2.5-.9.6-1.6.1-1-.6-.1-1.5 3.1-3.4 8-4.7 21-14.9 29.2-22.8 4.4-4.3 8.2-7.9 8.5-7.9.3 0 3.9 3.5 8.1 7.8z"/></svg>